<svg width="24" height="24" viewBox="0 0 24 24" fill="none" xmlns="http://www.w3.org/2000/svg">
<mask id="mask0_9876_37501" style="mask-type:alpha" maskUnits="userSpaceOnUse" x="0" y="0" width="24" height="24">
<rect width="24" height="24" fill="#D9D9D9"/>
</mask>
<g mask="url(#mask0_9876_37501)">
<path d="M6.70003 21C6.21669 21 5.78753 20.8417 5.41253 20.525C5.03753 20.2083 4.80836 19.8083 4.72503 19.325L3.20003 10.175C3.15003 9.875 3.22086 9.60417 3.41253 9.3625C3.60419 9.12083 3.85836 9 4.17503 9H19.825C20.1417 9 20.3959 9.12083 20.5875 9.3625C20.7792 9.60417 20.85 9.875 20.8 10.175L19.275 19.325C19.1917 19.8083 18.9625 20.2083 18.5875 20.525C18.2125 20.8417 17.7834 21 17.3 21H6.70003ZM5.40003 11L6.67503 19H17.325L18.6 11H5.40003ZM10 15H14C14.2834 15 14.5209 14.9042 14.7125 14.7125C14.9042 14.5208 15 14.2833 15 14C15 13.7167 14.9042 13.4792 14.7125 13.2875C14.5209 13.0958 14.2834 13 14 13H10C9.71669 13 9.47919 13.0958 9.28753 13.2875C9.09586 13.4792 9.00003 13.7167 9.00003 14C9.00003 14.2833 9.09586 14.5208 9.28753 14.7125C9.47919 14.9042 9.71669 15 10 15ZM6.00003 8C5.71669 8 5.47919 7.90417 5.28753 7.7125C5.09586 7.52083 5.00003 7.28333 5.00003 7C5.00003 6.71667 5.09586 6.47917 5.28753 6.2875C5.47919 6.09583 5.71669 6 6.00003 6H18C18.2834 6 18.5209 6.09583 18.7125 6.2875C18.9042 6.47917 19 6.71667 19 7C19 7.28333 18.9042 7.52083 18.7125 7.7125C18.5209 7.90417 18.2834 8 18 8H6.00003ZM8.00003 5C7.71669 5 7.47919 4.90417 7.28753 4.7125C7.09586 4.52083 7.00003 4.28333 7.00003 4C7.00003 3.71667 7.09586 3.47917 7.28753 3.2875C7.47919 3.09583 7.71669 3 8.00003 3H16C16.2834 3 16.5209 3.09583 16.7125 3.2875C16.9042 3.47917 17 3.71667 17 4C17 4.28333 16.9042 4.52083 16.7125 4.7125C16.5209 4.90417 16.2834 5 16 5H8.00003Z" fill="#C8C8C8"/>
</g>
</svg>
